<svg xmlns="http://www.w3.org/2000/svg" width="52.776" height="62.584" viewBox="843.612 923.416 52.776 62.584"><g data-name="Driver"><path d="M884.956 964.099h-7.292v-2.172c.541-.408 1.05-.858 1.52-1.346h2.453a5.769 5.769 0 0 0 5.762-5.762v-14.004a17.399 17.399 0 0 0-18.238-17.379c-9.286.438-16.56 8.273-16.56 17.84v13.543a5.769 5.769 0 0 0 5.763 5.762h2.453c.47.488.979.938 1.52 1.347v2.17h-7.292c-6.304 0-11.433 4.68-11.433 10.432v10.372a1.098 1.098 0 1 0 2.196 0V974.53c0-4.54 4.144-8.235 9.237-8.235h7.38a7.67 7.67 0 0 0 6.478 6.478v12.129a1.098 1.098 0 1 0 2.195 0v-12.13a7.67 7.67 0 0 0 6.478-6.477h7.38c5.093 0 9.236 3.694 9.236 8.235v10.372a1.098 1.098 0 1 0 2.196 0V974.53c0-5.752-5.128-10.431-11.432-10.431Zm-25.494-12.318v-7.503c2.59 2.325 6.43 3.732 10.539 3.732 4.108 0 7.947-1.407 10.538-3.732v7.503c0 5.82-4.718 10.539-10.539 10.539-5.82 0-10.538-4.719-10.538-10.539Zm1.163-9.407h18.75c-2.17 2.134-5.628 3.44-9.374 3.44-3.747 0-7.206-1.306-9.376-3.44Zm-2.261 16.01a3.57 3.57 0 0 1-3.566-3.565v-13.543c0-8.391 6.354-15.264 14.466-15.646a15.203 15.203 0 0 1 15.94 15.185v14.004a3.57 3.57 0 0 1-3.567 3.566h-.77a12.639 12.639 0 0 0 1.868-6.604v-10.505c0-.008-.005-.014-.005-.021a1.09 1.09 0 0 0-.071-.354 1.087 1.087 0 0 0-.037-.092c-.011-.024-.017-.05-.03-.075a1.093 1.093 0 0 0-.178-.234l-.007-.005a1.09 1.09 0 0 0-.39-.24 1.084 1.084 0 0 0-.38-.077h-23.273c-.13.002-.259.028-.38.076l-.088.037a1.09 1.09 0 0 0-.302.204l-.007.005c-.07.07-.13.149-.178.234-.014.024-.019.05-.03.075-.015.03-.026.06-.037.092a1.09 1.09 0 0 0-.072.354c0 .007-.004.013-.004.02v10.506a12.638 12.638 0 0 0 1.867 6.604h-.77ZM870 970.665a5.474 5.474 0 0 1-5.468-5.467v-1.932a12.573 12.573 0 0 0 10.935 0V965.198a5.474 5.474 0 0 1-5.467 5.467Z" fill="rgba(0,0,0,0.2 )" fill-rule="evenodd" data-name="Path 410"/></g></svg>