<svg xmlns="http://www.w3.org/2000/svg" width="43.717" height="62.583" viewBox="248.142 923.417 43.717 62.583">
  <g data-name="Menu">
    <path
      d="M267.081 944.559c.607 0 1.098-.492 1.098-1.098v-4.251a1.098 1.098 0 0 0-2.196 0v4.25c0 .608.492 1.1 1.098 1.099Z"
      fill="rgba(0,0,0,0.2 )" fill-rule="evenodd" data-name="Path 431" />
    <path
      d="M270.368 938.112c-.606 0-1.098.491-1.098 1.098v5.546a2.189 2.189 0 1 1-4.378 0v-5.546a1.098 1.098 0 0 0-2.196 0v5.546a4.38 4.38 0 0 0 3.287 4.228v12.184a1.098 1.098 0 1 0 2.196 0v-12.184a4.38 4.38 0 0 0 3.287-4.228v-5.546c0-.607-.491-1.099-1.098-1.098Z"
      fill="rgba(0,0,0,0.2)" fill-rule="evenodd" data-name="Path 430" />
    <path
      d="M278.408 938.112c-2.418 0-4.385 2.473-4.385 5.514 0 2.561 1.402 4.7 3.287 5.318v12.225a1.098 1.098 0 1 0 2.196 0v-12.225c1.885-.617 3.287-2.757 3.287-5.318 0-3.04-1.967-5.514-4.385-5.514Zm0 8.833c-1.186 0-2.189-1.52-2.189-3.319 0-1.8 1.003-3.319 2.19-3.319 1.185 0 2.188 1.52 2.188 3.319 0 1.8-1.003 3.318-2.189 3.318Z"
      fill="rgba(0,0,0,0.2 )" fill-rule="evenodd" data-name="Path 429" />
    <path
      d="M287.71 923.417h-38.47c-.607 0-1.099.491-1.098 1.098v51.602c0 .607.491 1.098 1.098 1.098h22.143v7.687a1.098 1.098 0 0 0 1.74.89l4.249-3.058 4.249 3.059a1.098 1.098 0 0 0 1.74-.891v-7.687h4.35a4.152 4.152 0 0 0 4.147-4.147v-45.503a4.153 4.153 0 0 0-4.147-4.148Zm-37.373 2.196h3.294v49.406h-3.294v-49.406Zm30.828 57.145-3.152-2.268a1.098 1.098 0 0 0-1.283 0l-3.151 2.268v-5.543h7.586v5.543Zm8.498-9.69a1.953 1.953 0 0 1-1.952 1.951h-31.884v-49.406h31.884a1.954 1.954 0 0 1 1.951 1.952v45.503Z"
      fill="rgba(0,0,0,0.2 )" fill-rule="evenodd" data-name="Path 428" />
  </g>
</svg>