<svg xmlns="http://www.w3.org/2000/svg" width="48.971" height="68.072" viewBox="1145.515 920.672 48.971 68.072"><g data-name="Location"><path d="M1164.337 939.367c.606 0 1.098-.492 1.098-1.098v-4.251a1.098 1.098 0 0 0-2.196 0v4.25c0 .607.491 1.1 1.098 1.099Z" fill="rgba(0,0,0,0.2 )" fill-rule="evenodd" data-name="Path 427"/><path d="M1167.623 932.92c-.606 0-1.098.491-1.098 1.098v5.545a2.189 2.189 0 0 1-4.377 0v-5.545a1.098 1.098 0 0 0-2.196 0v5.545a4.38 4.38 0 0 0 3.287 4.228v12.185a1.098 1.098 0 1 0 2.196 0v-12.185a4.38 4.38 0 0 0 3.286-4.228v-5.545c0-.607-.492-1.099-1.098-1.098Z" fill="rgba(0,0,0,0.2 )" fill-rule="evenodd" data-name="Path 426"/><path d="M1175.664 932.92c-2.418 0-4.385 2.473-4.385 5.514 0 2.561 1.402 4.7 3.287 5.318v12.225a1.098 1.098 0 0 0 2.196 0v-12.225c1.884-.617 3.286-2.757 3.286-5.318 0-3.04-1.967-5.514-4.384-5.514Zm0 8.833c-1.187 0-2.19-1.52-2.19-3.319 0-1.8 1.003-3.318 2.19-3.318 1.186 0 2.188 1.519 2.188 3.318 0 1.8-1.002 3.319-2.188 3.319Z" fill="rgba(0,0,0,0.2 )" fill-rule="evenodd" data-name="Path 425"/><path d="M1170 926.162c-10.48 0-19.004 8.525-19.004 19.005 0 10.478 8.525 19.003 19.004 19.003 10.479 0 19.004-8.525 19.004-19.003 0-10.48-8.525-19.005-19.004-19.005Zm0 35.812c-9.284 0-16.81-7.525-16.809-16.808 0-9.283 7.526-16.809 16.809-16.809 9.283 0 16.808 7.526 16.808 16.81-.01 9.278-7.53 16.797-16.808 16.807Z" fill="rgba(0,0,0,0.2 )" fill-rule="evenodd" data-name="Path 424"/><path d="M1187.33 927.85c-9.571-9.57-25.089-9.57-34.66 0-8.198 8.197-9.509 21.168-3.118 30.84l19.531 29.561a1.098 1.098 0 0 0 1.833 0l19.532-29.56c6.39-9.673 5.08-22.644-3.118-30.84Zm1.285 29.63L1170 985.654l-18.616-28.175c-5.818-8.805-4.625-20.612 2.839-28.076 8.713-8.714 22.84-8.714 31.554 0 7.463 7.462 8.657 19.27 2.838 28.077Z" fill="rgba(0,0,0,0.2 )" fill-rule="evenodd" data-name="Path 423"/></g></svg>