<svg xmlns="http://www.w3.org/2000/svg" width="36.868" height="68.072" viewBox="551.566 920.672 36.868 68.072">
  <g data-name="Mobile_banking">
    <path
      d="M567.592 951.25h1.31v4.296h-4.556a1.098 1.098 0 1 0 0 2.195h4.556v1.735a1.098 1.098 0 1 0 2.196 0v-1.735h1.311a4.344 4.344 0 0 0 0-8.687h-1.31v-4.296h4.556a1.098 1.098 0 1 0 0-2.196h-4.557v-1.734a1.098 1.098 0 0 0-2.196 0v1.734h-1.31a4.344 4.344 0 0 0 0 8.688Zm4.817 0a2.148 2.148 0 1 1 0 4.296h-1.31v-4.296h1.31Zm-4.817-6.492h1.31v4.296h-1.31a2.148 2.148 0 0 1 0-4.296Z"
      fill="rgba(0,0,0,0.2)" fill-rule="evenodd" data-name="Path 439" />
    <path
      d="M570 977.161a3.988 3.988 0 1 0 0 7.976 3.988 3.988 0 0 0 0-7.976Zm0 5.78a1.792 1.792 0 1 1 0-3.584 1.792 1.792 0 0 1 0 3.583Z"
      fill="rgba(0,0,0,0.2)" fill-rule="evenodd" data-name="Path 438" />
    <path
      d="M582.956 920.672h-25.911a5.484 5.484 0 0 0-5.479 5.478v57.115a5.485 5.485 0 0 0 5.479 5.48h25.91a5.485 5.485 0 0 0 5.48-5.48V926.15a5.484 5.484 0 0 0-5.48-5.478Zm-25.911 2.196h25.91a3.286 3.286 0 0 1 3.283 3.282v1.14h-32.476v-1.14a3.286 3.286 0 0 1 3.283-3.282Zm29.193 6.619v44.066h-32.476v-44.066h32.476Zm-3.282 57.061h-25.911a3.287 3.287 0 0 1-3.283-3.283v-7.516h32.476v7.516a3.287 3.287 0 0 1-3.282 3.283Z"
      fill="rgba(0,0,0,0.2)" fill-rule="evenodd" data-name="Path 437" />
  </g>
</svg>