<svg xmlns="http://www.w3.org/2000/svg" width="21.662" height="21.662" viewBox="153.168 2556.169 21.662 21.662"><path d="m174.044 2557.21-4.4-1.016c-.478-.11-.97.14-1.164.589l-2.03 4.738c-.178.415-.06.901.291 1.185l2.564 2.098a15.68 15.68 0 0 1-7.497 7.497l-2.098-2.564a1.014 1.014 0 0 0-1.185-.291l-4.739 2.03c-.452.2-.702.69-.592 1.168l1.015 4.4c.106.457.512.787.99.787 10.836 0 19.632-8.779 19.632-19.631 0-.474-.326-.884-.787-.99Z" fill="#fff" fill-rule="evenodd" data-name="phone-solid (4)"/></svg>